<svg xmlns="http://www.w3.org/2000/svg" viewBox="0 0 40 40">
  <title>Icon</title>
  <path d="M19.59,37.81l-7-10.35-10.35-7a2.72,2.72,0,0,1-.76-3.7L6.18,9.24a3.88,3.88,0,0,1,2.4-1.7L36.73,1A1.85,1.85,0,0,1,39,3.27l-6.5,28.15a3.88,3.88,0,0,1-1.7,2.4l-7.47,4.75A2.72,2.72,0,0,1,19.59,37.81Z" fill="none" stroke="#fff" stroke-linecap="round" stroke-linejoin="round" stroke-width="2"/>
  <path d="M36.73,1,23.32,4.14,9,25l3.58,2.44L15,31,35.86,16.68,39,3.27A1.85,1.85,0,0,0,36.73,1Z" fill="none" stroke="#fff" stroke-linecap="round" stroke-linejoin="round" stroke-width="2"/>
  <path d="M28.27,6.65l3.15,1.58a.79.79,0,0,1,.35.35l1.58,3.15" fill="none" stroke="#fff" stroke-linecap="round" stroke-linejoin="round" stroke-width="2"/>
  <path d="M12.54,27.46,8.88,25l-1,1a2.63,2.63,0,0,0,0,3.72l2.43,2.43a2.63,2.63,0,0,0,3.72,0l1-1Z" fill="none" stroke="#fff" stroke-linecap="round" stroke-linejoin="round" stroke-width="2"/>
</svg>