<svg width="45" height="50" viewBox="0 0 45 50" fill="none" xmlns="http://www.w3.org/2000/svg">
<g clip-path="url(#clip0_9_2)">
<path d="M0 33.1183V16.3282C0.000122415 14.9357 0.366775 13.5677 1.06311 12.3617C1.75945 11.1557 2.76094 10.1543 3.96694 9.45798L18.5083 1.06294C19.7143 0.366595 21.0826 0 22.4752 0C23.8679 0 25.2361 0.366595 26.4421 1.06294L40.9822 9.45798C42.1882 10.1543 43.1897 11.1557 43.886 12.3617C44.5824 13.5677 44.949 14.9357 44.9492 16.3282V33.1183C44.9488 34.5107 44.5821 35.8784 43.8858 37.0842C43.1895 38.2899 42.1881 39.2912 40.9822 39.9873L26.4397 48.3823C25.2336 49.0788 23.8654 49.4453 22.4727 49.4453C21.0801 49.4453 19.7119 49.0788 18.5058 48.3823L3.9657 39.9873C2.76011 39.2909 1.75899 38.2897 1.06289 37.084C0.366782 35.8783 0.000214308 34.5105 0 33.1183Z" fill="url(#paint0_linear_9_2)"/>
<path d="M26.3368 45.6946L39.3533 38.181C39.7946 37.9252 40.2077 37.6236 40.5855 37.281L26.4397 29.1215C25.2335 28.4254 23.8654 28.059 22.4727 28.0591V43.4632C22.4726 43.9154 22.5916 44.3597 22.8177 44.7515C23.0437 45.1431 23.3689 45.4684 23.7605 45.6945C24.1521 45.9207 24.5964 46.0397 25.0486 46.0397C25.5009 46.0399 25.9452 45.9207 26.3368 45.6946Z" fill="url(#paint1_linear_9_2)"/>
<path d="M40.583 37.2811C41.3322 36.6043 41.9311 35.7779 42.3411 34.8552C42.7511 33.9325 42.963 32.9342 42.9632 31.9245V17.0633C42.9633 16.6111 42.8443 16.1668 42.6183 15.7752C42.3922 15.3835 42.0671 15.0583 41.6754 14.8321C41.2838 14.6059 40.8395 14.4869 40.3873 14.4868C39.9351 14.4868 39.4908 14.6058 39.0992 14.8319L24.807 23.0844C24.0973 23.4944 23.508 24.0838 23.0981 24.7937C22.6884 25.5035 22.4727 26.3087 22.4727 27.1282V28.053C23.8654 28.0529 25.2335 28.4193 26.4397 29.1154L40.583 37.2811Z" fill="url(#paint2_radial_9_2)"/>
</g>
<defs>
<linearGradient id="paint0_linear_9_2" x1="32.7744" y1="6.66501" x2="5.7" y2="54.1257" gradientUnits="userSpaceOnUse">
<stop offset="0.31" stop-color="#3ADEE6"/>
<stop offset="0.44" stop-color="#38D8E0"/>
<stop offset="0.61" stop-color="#33C6CE"/>
<stop offset="0.82" stop-color="#2BA9B0"/>
<stop offset="1" stop-color="#21888F"/>
</linearGradient>
<linearGradient id="paint1_linear_9_2" x1="35.7657" y1="44.9397" x2="5.82396" y2="16.5909" gradientUnits="userSpaceOnUse">
<stop offset="0.15" stop-color="#9B7DD9"/>
<stop offset="0.37" stop-color="#7D63B3"/>
<stop offset="0.57" stop-color="#664F95"/>
<stop offset="0.75" stop-color="#584283"/>
<stop offset="0.88" stop-color="#533E7D"/>
</linearGradient>
<radialGradient id="paint2_radial_9_2" cx="0" cy="0" r="1" gradientUnits="userSpaceOnUse" gradientTransform="translate(11.3293 6.38365) scale(59.5872 59.5872)">
<stop offset="0.35" stop-color="#FF78C9"/>
<stop offset="0.42" stop-color="#FD7ECB"/>
<stop offset="0.51" stop-color="#F890D1"/>
<stop offset="0.62" stop-color="#EFAEDB"/>
<stop offset="0.66" stop-color="#EBBCE0"/>
</radialGradient>
<clipPath id="clip0_9_2">
<rect width="45" height="49.4628" fill="white"/>
</clipPath>
</defs>
</svg>
